<svg xmlns="http://www.w3.org/2000/svg" viewBox="0 0 192 92"><path fill="#ffffff" d="M0 40.8L192 0v51.1L0 92V40.8z"/><path d="M20.4 51.8l-8.7 1.9v2.9l5.5-1.2V74l8.7-1.9v-2.9l-5.5 1.2zM57 46.6c2.7-.6 3.7.8 3.8 3.5l3.2-.7c-.3-4.7-2.3-6.8-6.9-5.8-4.3.9-7.2 3.9-7.2 9.1V60c0 4.7 2.3 6.9 7.2 5.8 4.6-1 6.7-3.5 6.9-8l-3.1.7c-.1 2.5-1.4 3.9-3.8 4.4-3 .6-4.1-.6-4-3.5v-7.3c-.1-3.4 1.2-4.9 3.9-5.5zM43.9 65.4V53c0-3.7-1.6-6.1-5.2-5.4-2.3.5-4.8 2.4-5.4 4.6v-3.1l-6.8 1.4v2.9l3.6-.8v18.5l3.2-.7V54.8c1.5-2.9 3.1-3.8 4.6-4.1 1.7-.4 2.9.4 2.9 2.8v15.4l6.8-1.4v-2.9l-3.7.8zM179.2 21v-3l-11.3 2.4v3l3.2-.7v18.5l8.1-1.7v-2.9l-4.9 1V22zM87.1 56.6c-2.9.6-4-.7-4-3.6v-3l11-2.3v-4c0-4.6-2.5-7.3-7.1-6.3-4.5 1-7.1 4.5-7.1 9v7.3c0 4.6 2.7 6.8 7.2 5.9 5.6-1.2 7.2-5.3 7.2-8.1l-3 .5c-.2 2.9-1.9 4.1-4.2 4.6zm-4-11c0-2.8 1.1-4.9 3.9-5.5 2.9-.6 3.9 1.2 3.9 4.2v1.1l-7.8 1.7v-1.5zm53.8.4c-2.9.6-4-.7-4-3.6v-3l11-2.3v-4c0-4.6-2.5-7.3-7.1-6.3-4.5 1-7.1 4.5-7.1 9v7.3c0 4.6 2.7 6.8 7.2 5.9 5.6-1.2 7.2-5.3 7.2-8.1l-2.9.6c-.4 2.8-2.1 4-4.3 4.5zm-4-10.9c0-2.8 1.1-4.9 3.9-5.5 2.9-.6 3.9 1.2 3.9 4.2v1.1l-7.8 1.7v-1.5zm31 4.7V27.4c0-3.5-2-6.1-5.4-5.3-2.3.5-4.6 2.4-5.3 4.6v-3.1l-6.8 1.4v2.9l3.6-.8v18.5l3.2-.7V29.3c1.5-2.9 3.1-3.8 4.6-4.1 1.7-.4 2.9.4 2.9 2.8v15.4l6.8-1.4v-2.9l-3.6.7zm-40.4 8.6V35.5c0-3.3-2.2-5.5-5.4-4.9-2 .4-4.6 2.7-5 4.7-.4-1.6-2.6-3-4.9-2.5-2 .4-4.2 2.4-4.6 4.4v-3.1l-6.8 1.4v2.9l3.6-.8v18.5l3.2-.7V39.9c.9-1.9 2.3-3.7 4.2-4.1 1.2-.2 2.6.2 2.6 3v15.3l3.2-.7V37.9c.9-1.9 2.3-3.7 4.2-4.1 1.2-.2 2.6.2 2.6 3v15.3l6.8-1.4v-2.9l-3.7.6zm-55.2-6.8v21.5l3.2-.7V43.9l5.5-1.2v-2.9z" fill="#000000"/></svg>
